 <svg  version="1.0" xmlns="https://www.w3.org/2000/svg"  width="200.000000pt" height="200.000000pt" viewBox="0 0 200.000000 200.000000"  preserveAspectRatio="xMidYMid meet">  <g transform="translate(0.000000,200.000000) scale(0.100000,-0.100000)" fill="#2fa231" stroke="none"> <path d="M607 1858 c-2 -7 -2 -79 1 -160 2 -80 1 -181 -3 -222 l-7 -76 -234 0 -234 0 0 -394 0 -394 64 -7 c36 -3 136 -5 223 -3 87 1 164 -1 171 -5 9 -6 12 -65 12 -238 l0 -229 395 0 395 0 0 224 c0 175 3 226 13 235 10 7 83 10 235 8 121 -1 223 1 227 5 4 4 9 604 5 781 0 4 -100 7 -223 7 -160 0 -226 3 -235 12 -9 9 -12 76 -12 240 l0 228 -394 0 c-307 0 -395 -3 -399 -12z m741 -290 l2 -228 220 0 c199 0 220 -2 227 -17 4 -10 6 -164 3 -343 l-5 -325 -227 -3 -228 -2 -2 -223 -3 -222 -340 0 -340 0 -3 227 -2 228 -223 2 -222 3 0 340 0 340 228 3 227 2 0 219 c0 120 3 221 7 224 4 4 158 6 342 5 l336 -3 3 -227z"/> <path d="M840 1648 c-69 -37 -93 -79 -88 -154 7 -115 77 -178 252 -229 157 -45 181 -65 181 -144 0 -87 -46 -159 -122 -194 -26 -11 -31 -45 -9 -53 20 -8 95 27 137 64 48 42 89 128 89 188 0 97 -59 153 -196 185 -146 33 -178 44 -214 70 -21 16 -46 42 -55 58 -30 58 -12 141 37 175 70 50 207 -34 154 -93 -23 -25 -16 -58 20 -101 32 -38 48 -28 62 37 10 47 7 73 -9 73 -5 0 -20 24 -33 53 -29 61 -50 76 -114 83 -37 5 -56 1 -92 -18z"/> <path d="M1310 1187 c-5 -18 -4 -134 1 -132 3 3 29 20 58 39 29 20 71 41 94 47 23 6 60 15 81 21 66 17 22 28 -111 27 -68 0 -123 -1 -123 -2z"/> <path d="M420 1170 c0 -5 12 -12 28 -15 129 -28 144 -34 231 -100 86 -65 144 -92 226 -106 l75 -13 0 -107 c0 -68 4 -110 11 -115 21 -13 29 21 29 123 l0 102 35 17 c62 29 117 136 101 199 l-6 25 -365 0 c-232 0 -365 -4 -365 -10z"/> <path d="M887 892 c-70 -43 -79 -151 -17 -203 82 -69 244 -56 311 24 26 31 24 82 -3 101 -26 18 -90 21 -119 6 -26 -14 -24 -30 4 -30 46 0 67 -40 37 -70 -41 -41 -150 -39 -187 5 -31 36 -29 71 7 107 34 33 41 78 13 78 -10 0 -30 -8 -46 -18z"/> <path d="M931 766 c-11 -13 -11 -20 -3 -28 8 -8 13 -7 18 5 10 27 0 41 -15 23z"/> <path d="M867 633 c-4 -3 -7 -14 -7 -24 0 -66 74 -113 193 -123 84 -7 101 7 24 19 -105 17 -157 49 -157 96 0 10 -9 23 -19 29 -23 12 -26 12 -34 3z"/> <path d="M974 606 c-10 -27 1 -51 24 -54 21 -3 23 0 20 30 -3 35 -33 52 -44 24z"/> <path d="M976 454 c-3 -9 -6 -27 -6 -40 0 -16 -8 -28 -22 -34 -47 -18 -162 -50 -187 -51 l-26 -1 25 -6 c14 -4 138 -5 275 -2 184 4 237 7 200 14 -27 4 -69 14 -93 22 -23 8 -51 14 -60 14 -31 0 -62 29 -62 59 0 17 -7 31 -16 35 -21 8 -21 8 -28 -10z"/> </g> </svg> 